<?xml version="1.0" standalone="no"?>
<!DOCTYPE svg PUBLIC "-//W3C//DTD SVG 20010904//EN"
 "http://www.w3.org/TR/2001/REC-SVG-20010904/DTD/svg10.dtd">
<svg version="1.0" xmlns="http://www.w3.org/2000/svg"
 width="500.000000pt" height="500.000000pt" viewBox="0 0 500.000000 500.000000"
 preserveAspectRatio="xMidYMid meet">
<metadata>
Created by potrace 1.10, written by Peter Selinger 2001-2011
</metadata>
<g transform="translate(0.000000,500.000000) scale(0.100000,-0.100000)"
fill="#8a2be2" stroke="none">
<path d="M1193 3972 c-28 -10 -69 -30 -91 -45 -53 -34 -118 -134 -132 -200 -7
-37 -10 -343 -8 -1007 l3 -955 27 -55 c40 -80 79 -122 150 -161 l63 -34 995 0
995 0 53 24 c70 31 154 122 179 193 17 50 18 106 18 1018 0 940 -1 966 -20
1019 -26 72 -100 152 -173 188 l-57 28 -975 2 c-917 2 -978 1 -1027 -15z
m1993 -67 c63 -18 122 -68 157 -133 l27 -50 0 -972 0 -971 -25 -48 c-13 -27
-43 -65 -66 -84 -81 -70 -29 -67 -1075 -67 -921 0 -945 0 -997 20 -63 24 -117
74 -149 139 l-23 46 0 965 0 965 22 45 c32 65 92 119 155 141 50 17 107 18
989 19 797 0 943 -2 985 -15z"/>
<path d="M2625 3723 c-75 -39 -118 -108 -117 -189 1 -116 91 -205 207 -205
219 0 289 292 94 391 -47 25 -141 26 -184 3z m182 -20 c21 -11 52 -39 68 -62
26 -36 30 -52 30 -104 0 -115 -77 -192 -189 -192 -74 0 -118 23 -160 82 -115
164 71 369 251 276z"/>
<path d="M2115 3460 c-112 -14 -244 -64 -325 -124 -193 -144 -299 -352 -300
-587 0 -339 243 -635 576 -700 356 -69 697 132 822 484 22 63 25 89 26 212 1
121 -2 149 -22 210 -63 189 -175 325 -352 428 -101 58 -295 94 -425 77z m235
-52 c30 -5 96 -29 147 -53 77 -36 106 -57 176 -127 94 -93 143 -172 179 -288
34 -111 32 -283 -5 -396 -82 -250 -310 -435 -569 -463 -464 -50 -837 373 -728
828 55 229 221 406 455 486 98 33 214 38 345 13z"/>
</g>
</svg>
